<?xml version="1.0" standalone="no"?>
<!DOCTYPE svg PUBLIC "-//W3C//DTD SVG 20010904//EN"
 "http://www.w3.org/TR/2001/REC-SVG-20010904/DTD/svg10.dtd">
<svg version="1.0" xmlns="http://www.w3.org/2000/svg"
 width="500.000000pt" height="500.000000pt" viewBox="0 0 500.000000 500.000000"
 preserveAspectRatio="xMidYMid meet">
<metadata>
Created by potrace 1.14, written by Peter Selinger 2001-2017
</metadata>
<g transform="translate(0.000000,500.000000) scale(0.100000,-0.100000)"
fill="#000000" stroke="none">
<path d="M2098 4679 c-11 -7 -14 -23 -23 -119 -6 -71 -15 -156 -20 -200 -3
-19 -7 -62 -10 -95 -3 -33 -8 -76 -10 -95 -2 -19 -7 -60 -10 -90 -10 -104 -16
-155 -20 -190 -3 -19 -7 -60 -10 -90 -6 -68 -14 -144 -20 -190 -3 -19 -7 -64
-10 -100 -4 -36 -8 -78 -10 -95 -2 -16 -7 -57 -10 -90 -3 -32 -7 -61 -9 -63
-2 -2 -69 12 -148 32 -470 115 -672 165 -695 170 -10 2 -70 17 -133 32 -63 15
-117 28 -120 29 -3 0 -49 11 -103 24 -53 13 -99 22 -100 20 -7 -9 -298 -891
-295 -894 3 -3 59 -29 288 -135 69 -32 159 -73 200 -93 41 -19 105 -49 143
-66 105 -48 184 -85 292 -136 55 -26 125 -58 155 -72 138 -63 160 -74 160 -85
0 -6 -42 -92 -94 -192 -95 -183 -175 -340 -416 -810 -72 -142 -128 -261 -123
-265 16 -14 279 -227 408 -331 135 -109 150 -122 200 -165 l30 -26 50 54 c49
53 171 188 208 230 10 12 37 42 60 67 23 25 98 108 167 185 69 77 130 146 137
153 7 7 83 91 169 187 87 96 161 175 165 175 4 0 12 -6 16 -14 4 -8 22 -29 38
-48 28 -30 94 -107 200 -233 54 -63 300 -352 329 -385 34 -40 310 -365 312
-368 1 -3 455 336 682 509 l22 17 -91 179 c-50 98 -119 232 -154 298 -34 66
-131 255 -215 420 -84 165 -161 316 -172 335 l-18 35 182 89 c101 49 237 114
303 146 66 32 192 92 280 135 88 43 221 106 295 142 74 36 136 66 138 68 3 2
-19 81 -88 325 -72 252 -150 537 -150 547 0 6 -5 15 -10 18 -11 6 -82 -7 -145
-26 -26 -8 -338 -84 -388 -94 -10 -2 -27 -7 -37 -10 -10 -3 -27 -8 -37 -10
-10 -2 -67 -15 -128 -30 -60 -14 -117 -28 -126 -30 -9 -2 -52 -12 -95 -23
-170 -44 -337 -83 -340 -80 -4 5 -12 54 -19 128 -3 36 -8 79 -10 95 -2 17 -7
62 -10 100 -3 39 -8 86 -10 105 -2 19 -7 60 -10 90 -4 30 -8 66 -10 80 -2 14
-7 59 -10 100 -3 41 -8 86 -10 100 -2 14 -6 57 -10 95 -3 39 -8 81 -10 95 -2
14 -6 57 -10 95 -4 39 -8 84 -10 100 -2 17 -7 57 -10 90 -12 124 -17 145 -34
146 -93 4 -865 2 -873 -2z"/>
</g>
</svg>
