<svg width="188" height="404" viewBox="0 0 188 404" fill="none" xmlns="http://www.w3.org/2000/svg">
<path d="M7.30547 120.302C7.30547 114.542 8.10547 108.142 9.70547 101.102C11.3055 94.0618 13.8655 86.3018 17.3855 77.8218L34.6655 84.5418C32.1055 91.2618 30.1855 97.4218 28.9055 103.022C27.6255 108.622 26.9855 113.822 26.9855 118.622C26.9855 127.422 29.1455 134.542 33.4655 139.982C37.9455 145.582 43.8655 149.662 51.2255 152.222C58.7455 154.782 66.9855 156.062 75.9455 156.062C86.8255 156.062 95.9455 154.862 103.305 152.462C110.665 150.222 116.505 147.102 120.825 143.102C125.145 139.102 128.185 134.542 129.945 129.422C131.865 124.462 132.825 119.262 132.825 113.822C132.825 106.782 132.265 100.142 131.145 93.9018C130.185 87.6618 128.825 81.5818 127.065 75.6618C125.465 69.5818 123.705 63.4218 121.785 57.1818L141.225 51.9018C142.985 57.9818 144.345 62.9418 145.305 66.7818C146.265 70.4618 146.985 73.4218 147.465 75.6618C148.105 77.9018 148.665 79.9018 149.145 81.6618C150.905 87.5818 153.225 91.9818 156.105 94.8618C158.985 97.5818 162.265 99.4218 165.945 100.382C169.785 101.182 173.705 101.582 177.705 101.582C181.065 101.582 183.465 102.542 184.905 104.462C186.505 106.222 187.305 108.382 187.305 110.942C187.305 113.502 186.185 115.902 183.945 118.142C181.705 120.222 178.825 121.262 175.305 121.262C168.585 121.262 162.985 120.142 158.505 117.902C154.025 115.502 150.505 112.542 147.945 109.022C145.545 105.502 143.945 101.822 143.145 97.9818L152.985 110.222C152.505 118.382 150.905 126.302 148.185 133.982C145.625 141.822 141.465 148.862 135.705 155.102C129.945 161.502 122.105 166.542 112.185 170.222C102.425 173.902 90.1055 175.742 75.2255 175.742C66.1055 175.742 57.4655 174.622 49.3055 172.382C41.1455 170.142 33.8655 166.702 27.4655 162.062C21.2255 157.582 16.2655 151.822 12.5855 144.782C9.06547 137.902 7.30547 129.742 7.30547 120.302ZM79.7855 24.5418C76.4255 24.5418 73.5455 23.4218 71.1455 21.1818C68.9055 18.7818 67.7855 15.9818 67.7855 12.7818C67.7855 9.58176 68.9055 6.78176 71.1455 4.38176C73.5455 1.98176 76.4255 0.781765 79.7855 0.781765C82.9855 0.781765 85.7055 1.98176 87.9455 4.38176C90.3455 6.78176 91.5455 9.58176 91.5455 12.7818C91.5455 15.9818 90.3455 18.7818 87.9455 21.1818C85.7055 23.4218 82.9855 24.5418 79.7855 24.5418ZM0.105469 403.262L2.50547 383.582C6.50547 383.582 10.9055 383.582 15.7055 383.582C20.6655 383.422 25.6255 383.262 30.5855 383.102C35.7055 382.942 40.4255 382.622 44.7455 382.142C49.0655 381.502 52.6655 380.702 55.5455 379.742C61.3055 377.662 65.7855 375.102 68.9855 372.062C72.1855 368.862 74.4255 364.702 75.7055 359.582C77.1455 354.302 77.8655 347.582 77.8655 339.422C77.8655 332.702 76.9855 326.462 75.2255 320.702C73.4655 314.942 70.9855 310.302 67.7855 306.782C64.5855 303.262 60.7455 301.502 56.2655 301.502C52.5855 301.502 49.2255 302.942 46.1855 305.822C43.3055 308.542 40.9855 312.062 39.2255 316.382C37.6255 320.702 36.8255 325.022 36.8255 329.342C36.8255 332.702 37.4655 335.582 38.7455 337.982C40.1855 340.382 42.5055 342.302 45.7055 343.742C48.9055 345.022 53.0655 345.662 58.1855 345.662C62.8255 345.662 67.4655 345.182 72.1055 344.222C76.9055 343.262 80.9855 341.982 84.3455 340.382L85.3055 357.182C82.7455 358.942 79.8655 360.382 76.6655 361.502C73.4655 362.622 70.1055 363.422 66.5855 363.902C63.0655 364.382 59.5455 364.622 56.0255 364.622C47.8655 364.622 40.9055 363.342 35.1455 360.782C29.5455 358.062 25.2255 354.462 22.1855 349.982C19.3055 345.342 17.8655 340.062 17.8655 334.142C17.8655 328.062 18.8255 321.982 20.7455 315.902C22.6655 309.662 25.3855 303.982 28.9055 298.862C32.4255 293.742 36.6655 289.662 41.6255 286.622C46.5855 283.422 52.1055 281.822 58.1855 281.822C66.8255 281.822 73.9455 284.622 79.5455 290.222C85.3055 295.822 89.5455 303.182 92.2655 312.302C95.1455 321.262 96.5855 330.782 96.5855 340.862C96.5855 352.862 94.5055 363.182 90.3455 371.822C86.3455 380.302 79.6255 387.342 70.1855 392.942C66.5055 395.022 62.0255 396.782 56.7455 398.222C51.6255 399.502 45.9455 400.542 39.7055 401.342C33.6255 402.142 27.2255 402.622 20.5055 402.782C13.7855 403.102 6.98547 403.262 0.105469 403.262ZM53.6255 257.102C50.2655 257.102 47.3855 255.982 44.9855 253.742C42.7455 251.342 41.6255 248.542 41.6255 245.342C41.6255 242.142 42.7455 239.342 44.9855 236.942C47.3855 234.542 50.2655 233.342 53.6255 233.342C56.8255 233.342 59.5455 234.542 61.7855 236.942C64.1855 239.342 65.3855 242.142 65.3855 245.342C65.3855 248.542 64.1855 251.342 61.7855 253.742C59.5455 255.982 56.8255 257.102 53.6255 257.102Z" fill="white"/>
</svg>
